<svg width="1440" height="1438" viewBox="0 0 1440 1438" fill="none" xmlns="http://www.w3.org/2000/svg">
<path d="M-10 68.3965C-10 68.3965 226.002 184.707 382.593 164.356C524.862 145.866 567.262 -9.1463 710.429 0.425192C837.001 8.8872 870.228 122.199 989.696 164.356C1156.83 223.333 1443 0.425192 1443 0.425192V1008H-10V68.3965Z" fill="#AAFFBF"/>
<path d="M-4 128.616C-4 128.616 178.409 195.724 335 166.812C477.269 140.545 573.262 18.4555 716.429 32.0532C843.001 44.0746 876.228 205.05 995.696 264.939C1162.83 348.724 1449 48.7511 1449 48.7511V1463.45C1449 1463.45 1287 1617.69 735 1463.45C433 1403.15 462.464 1516.19 299 1528.36C138.221 1540.33 -4 1463.45 -4 1463.45V128.616Z" fill="#084116"/>
<path d="M55 -29.6003L55 1368.87" stroke="white" stroke-opacity="0.2"/>
<path d="M134 -29.6003L134 1368.87" stroke="white" stroke-opacity="0.2"/>
<path d="M213 -29.6003L213 1368.87" stroke="white" stroke-opacity="0.2"/>
<path d="M292 -29.6003L292 1368.87" stroke="white" stroke-opacity="0.2"/>
<path d="M371 -29.6003L371 1368.87" stroke="white" stroke-opacity="0.2"/>
<path d="M450 -29.6003L450 1368.87" stroke="white" stroke-opacity="0.2"/>
<path d="M529 -29.6003L529 1368.87" stroke="white" stroke-opacity="0.2"/>
<path d="M608 -29.6003L608 1368.87" stroke="white" stroke-opacity="0.2"/>
<path d="M687 -29.6003L687 1368.87" stroke="white" stroke-opacity="0.2"/>
<path d="M766 -29.6003L766 1368.87" stroke="white" stroke-opacity="0.2"/>
<path d="M845 -29.6003L845 1368.87" stroke="white" stroke-opacity="0.2"/>
<path d="M924 -29.6003L924 1368.87" stroke="white" stroke-opacity="0.2"/>
<path d="M1003 -29.6003L1003 1368.87" stroke="white" stroke-opacity="0.2"/>
<path d="M1082 -29.6003L1082 1368.87" stroke="white" stroke-opacity="0.2"/>
<path d="M1161 -29.6003L1161 1368.87" stroke="white" stroke-opacity="0.2"/>
<path d="M1240 -29.6003L1240 1368.87" stroke="white" stroke-opacity="0.2"/>
<path d="M1319 -29.6003L1319 1368.87" stroke="white" stroke-opacity="0.2"/>
<path d="M1398 -29.6003L1398 1368.87" stroke="white" stroke-opacity="0.2"/>
</svg>
