<svg width="399" height="2280" viewBox="0 0 399 2280" fill="none" xmlns="http://www.w3.org/2000/svg">
<path d="M5 122.752C5 122.752 60.7538 166.886 103 141.528C141.382 118.49 160.738 26.1316 199.362 38.058C233.51 48.6019 243.769 63.9996 276 116.528C321.091 190.015 397 38.058 397 38.058V1293.53H5V122.752Z" fill="#92FFAD"/>
<path d="M1 216.829C1 216.829 31.1072 217.245 74 175.555C112.97 137.677 159.121 57.9765 198.337 77.5844C233.007 94.9195 233.276 55.6447 266 142.006C311.781 262.825 399 101.663 399 101.663V2141.68C399 2141.68 376.702 2406.94 225.5 2184.53C142.777 2097.58 150.848 2260.58 106.073 2278.13C62.0325 2295.39 1 2141.68 1 2141.68V216.829Z" fill="#084116"/>
<path d="M1 0.644165L1.00001 1743.26" stroke="white" stroke-opacity="0.2" stroke-width="0.171018"/>
<path d="M22.3452 0.644165L22.3452 1743.26" stroke="white" stroke-opacity="0.2" stroke-width="0.171018"/>
<path d="M43.6909 0.644165L43.6909 1743.26" stroke="white" stroke-opacity="0.2" stroke-width="0.171018"/>
<path d="M65.0366 0.644165L65.0366 1743.26" stroke="white" stroke-opacity="0.2" stroke-width="0.171018"/>
<path d="M86.3828 0.644165L86.3828 1743.26" stroke="white" stroke-opacity="0.2" stroke-width="0.171018"/>
<path d="M107.728 0.644165L107.728 1743.26" stroke="white" stroke-opacity="0.2" stroke-width="0.171018"/>
<path d="M129.073 0.644165L129.073 1743.26" stroke="white" stroke-opacity="0.2" stroke-width="0.171018"/>
<path d="M150.419 0.644165L150.419 1743.26" stroke="white" stroke-opacity="0.2" stroke-width="0.171018"/>
<path d="M171.764 0.644165L171.764 1743.26" stroke="white" stroke-opacity="0.2" stroke-width="0.171018"/>
<path d="M193.109 0.644165L193.109 1743.26" stroke="white" stroke-opacity="0.2" stroke-width="0.171018"/>
<path d="M214.455 0.644165L214.455 1743.26" stroke="white" stroke-opacity="0.2" stroke-width="0.171018"/>
<path d="M235.801 0.644165L235.801 1743.26" stroke="white" stroke-opacity="0.2" stroke-width="0.171018"/>
<path d="M257.147 0.644165L257.147 1743.26" stroke="white" stroke-opacity="0.2" stroke-width="0.171018"/>
<path d="M278.492 0.644165L278.492 1743.26" stroke="white" stroke-opacity="0.2" stroke-width="0.171018"/>
<path d="M299.837 0.644165L299.837 1743.26" stroke="white" stroke-opacity="0.2" stroke-width="0.171018"/>
<path d="M321.184 0.644165L321.184 1743.26" stroke="white" stroke-opacity="0.2" stroke-width="0.171018"/>
<path d="M342.529 0.644165L342.529 1743.26" stroke="white" stroke-opacity="0.2" stroke-width="0.171018"/>
<path d="M363.875 0.644165L363.875 1743.26" stroke="white" stroke-opacity="0.2" stroke-width="0.171018"/>
<path d="M385.22 0.644165L385.22 1743.26" stroke="white" stroke-opacity="0.2" stroke-width="0.171018"/>
</svg>
